<?xml version="1.0" standalone="no"?>
<!DOCTYPE svg PUBLIC "-//W3C//DTD SVG 20010904//EN"
 "http://www.w3.org/TR/2001/REC-SVG-20010904/DTD/svg10.dtd">
<svg version="1.0" xmlns="http://www.w3.org/2000/svg"
 width="600.000000pt" height="600.000000pt" viewBox="0 0 600.000000 600.000000"
 preserveAspectRatio="xMidYMid meet">
<metadata>
Created by potrace 1.14, written by Peter Selinger 2001-2017
</metadata>
<g transform="translate(0.000000,600.000000) scale(0.100000,-0.100000)"
fill="#000000" stroke="none">
<path d="M5328 5941 c-48 -75 -49 -92 -2 -26 44 62 57 85 47 84 -4 0 -25 -26
-45 -58z"/>
<path d="M5370 4323 c-45 -153 -95 -318 -111 -368 -15 -49 -89 -288 -164 -530
-126 -409 -219 -705 -265 -850 -31 -98 -170 -563 -285 -955 -59 -201 -123
-417 -141 -480 -19 -63 -53 -180 -75 -260 -45 -159 -60 -194 -87 -209 -11 -6
-24 -32 -32 -66 -7 -31 -17 -58 -21 -61 -19 -11 -957 191 -1764 381 -55 13
-228 53 -385 90 -439 102 -996 241 -1085 271 -44 14 -87 32 -97 41 -16 14 -18
49 -5 70 12 18 -23 24 -52 8 -37 -18 -45 -59 -23 -105 20 -41 122 -99 187
-106 22 -3 47 -7 55 -11 8 -3 22 -7 30 -8 8 -1 98 -23 200 -48 102 -25 253
-62 335 -81 144 -35 189 -45 495 -116 74 -17 200 -46 280 -65 325 -77 620
-146 710 -166 52 -12 157 -36 233 -55 76 -19 149 -34 162 -34 14 0 25 -5 25
-11 0 -6 9 -9 20 -6 11 3 17 1 14 -4 -3 -6 6 -7 23 -4 22 5 25 4 13 -5 -12 -9
-8 -10 19 -5 25 5 32 4 26 -5 -6 -9 1 -10 26 -5 26 5 30 4 19 -5 -11 -8 -6 -9
25 -5 24 3 33 2 22 -3 -13 -5 53 -24 210 -60 125 -29 239 -52 253 -52 22 0 67
19 47 20 -4 0 6 12 22 28 26 24 46 83 171 492 78 256 170 557 205 670 35 113
77 250 93 305 25 83 175 570 267 865 12 41 37 120 53 175 17 55 76 246 131
425 54 179 134 442 176 585 42 143 94 320 116 393 39 127 46 191 23 199 -6 2
-45 -113 -94 -274z m-1595 -3783 c25 -11 -1 -11 -35 0 -20 6 -21 8 -5 8 11 0
29 -3 40 -8z m72 -16 c-3 -3 -12 -4 -19 -1 -8 3 -5 6 6 6 11 1 17 -2 13 -5z
m90 -20 c-3 -3 -12 -4 -19 -1 -8 3 -5 6 6 6 11 1 17 -2 13 -5z"/>
<path d="M2676 4178 c-27 -73 -103 -286 -171 -473 -68 -187 -162 -448 -209
-580 -105 -291 -190 -523 -217 -589 -14 -35 -16 -52 -8 -57 6 -3 95 -23 198
-43 394 -78 671 -138 1066 -231 226 -53 426 -99 445 -102 l36 -5 53 168 c29
93 80 250 111 349 32 99 72 223 88 275 17 52 76 235 130 405 143 443 204 644
198 654 -6 9 -117 41 -231 66 -82 17 -199 45 -345 80 -233 56 -353 81 -785
164 -88 17 -182 33 -210 36 -27 3 -62 8 -76 10 -25 6 -27 2 -73 -127z m424 16
c318 -60 347 -66 640 -134 140 -32 327 -75 415 -95 88 -20 163 -40 167 -43 3
-4 -3 -36 -14 -72 -40 -133 -118 -382 -201 -640 -47 -146 -115 -359 -152 -475
-37 -115 -71 -214 -75 -219 -5 -5 -154 25 -342 68 -183 42 -363 83 -400 91
-38 8 -101 22 -140 31 -40 8 -100 21 -133 29 -33 7 -180 37 -327 66 -174 35
-268 57 -268 65 0 11 113 330 196 554 39 103 194 533 251 695 19 55 39 108 45
119 12 22 8 22 338 -40z m-517 -1536 c12 -6 16 -15 11 -26 -4 -9 -7 -26 -8
-38 -2 -35 -25 -54 -67 -54 -21 0 -41 5 -44 11 -4 6 0 32 10 57 9 26 18 53 21
60 4 13 42 8 77 -10z m206 -37 c21 -13 3 -32 -25 -25 -15 4 -24 2 -24 -6 0 -6
9 -14 20 -17 28 -7 25 -23 -4 -23 -32 0 -44 -20 -17 -27 12 -3 21 -12 21 -19
0 -16 -5 -17 -50 -8 -29 6 -31 10 -26 35 3 15 12 44 20 63 12 29 20 36 43 36
15 0 34 -4 42 -9z m194 -41 c14 0 1 -25 -13 -25 -14 0 -22 -12 -40 -62 -8 -21
-19 -33 -31 -33 -23 0 -23 -3 -4 50 11 31 12 46 4 56 -18 22 -2 33 38 23 21
-5 42 -9 46 -9z m150 -31 c38 -10 52 -39 18 -39 -13 0 -22 -12 -31 -45 -9 -33
-18 -45 -31 -45 -22 0 -24 20 -7 67 10 28 10 36 -1 42 -7 5 -10 14 -7 20 9 13
12 14 59 0z m214 -49 c2 0 3 -7 3 -16 0 -12 -6 -15 -25 -10 -27 7 -36 -11 -10
-20 8 -4 15 -13 15 -21 0 -11 -7 -13 -25 -9 -18 5 -25 2 -25 -8 0 -7 9 -16 20
-19 11 -3 20 -11 20 -17 0 -9 -12 -11 -41 -7 -22 3 -43 8 -46 11 -6 6 25 106
39 123 6 8 19 9 41 2 18 -5 33 -9 34 -9z m196 -52 c9 -5 17 -17 17 -28 0 -20
-25 -50 -41 -50 -5 0 -7 -11 -3 -25 8 -31 -21 -36 -31 -5 -7 21 -25 28 -25 10
0 -5 -9 -10 -20 -10 -11 0 -20 2 -20 5 0 4 14 50 36 113 4 14 51 9 87 -10z"/>
<path d="M2896 3874 c-20 -59 -34 -109 -32 -111 2 -2 20 -7 40 -10 34 -5 38
-4 49 27 l12 32 61 -7 c56 -6 63 -4 93 21 27 22 32 33 29 63 -3 32 -8 39 -48
58 -25 11 -73 24 -106 27 l-62 7 -36 -107z m168 25 c19 -17 -3 -39 -39 -39
-36 0 -42 10 -29 44 6 16 48 13 68 -5z"/>
<path d="M3244 3908 c-11 -17 -64 -182 -64 -198 0 -21 160 -56 172 -37 18 27
4 51 -34 60 -21 5 -38 14 -38 20 0 6 9 37 21 69 11 33 18 65 16 72 -6 16 -65
27 -73 14z"/>
<path d="M3565 3842 c-6 -4 -39 -41 -75 -82 -36 -41 -68 -76 -72 -78 -5 -2 -8
-10 -8 -18 0 -19 60 -34 85 -20 34 18 101 4 108 -23 4 -18 65 -36 78 -22 6 5
-7 156 -17 208 -3 15 -15 25 -42 32 -44 13 -44 13 -57 3z m35 -124 c0 -19 -8
-22 -34 -12 -14 5 -14 8 1 31 12 18 18 21 24 11 5 -7 9 -21 9 -30z"/>
<path d="M3742 3698 c-19 -58 -29 -105 -24 -110 5 -5 22 -10 37 -11 27 -2 30
2 46 53 19 61 20 60 49 -37 11 -35 18 -42 52 -53 23 -6 44 -8 49 -3 10 10 69
180 69 200 0 12 -58 34 -71 27 -4 -2 -10 -15 -13 -28 -3 -14 -11 -38 -17 -53
-10 -27 -11 -26 -32 37 -18 50 -28 66 -47 71 -62 17 -63 16 -98 -93z"/>
<path d="M2780 3581 c0 -5 11 -37 24 -72 22 -59 23 -65 9 -107 -17 -48 -13
-57 34 -65 30 -6 32 -4 49 40 14 36 31 55 87 96 74 53 75 65 11 74 -33 4 -43
1 -63 -21 -14 -14 -28 -26 -32 -26 -4 0 -13 16 -19 36 -8 22 -21 39 -37 45
-31 11 -63 12 -63 0z"/>
<path d="M3105 3506 c-57 -26 -99 -90 -89 -137 16 -71 58 -99 149 -99 53 0 60
3 96 39 33 33 39 45 39 83 0 54 -21 85 -74 109 -48 22 -80 23 -121 5z m99 -72
c36 -35 -1 -104 -55 -104 -48 0 -63 49 -28 94 23 29 60 34 83 10z"/>
<path d="M3342 3398 c-11 -35 -23 -75 -26 -89 -11 -52 50 -99 128 -99 63 0 99
34 132 125 24 65 24 70 8 82 -10 7 -30 13 -45 13 -20 0 -28 -6 -33 -25 -4 -14
-16 -50 -27 -80 -17 -46 -24 -55 -45 -55 -36 0 -39 22 -13 93 27 77 22 97 -25
97 -33 0 -35 -2 -54 -62z"/>
<path d="M3646 3401 c-11 -17 -75 -215 -71 -219 2 -2 21 -6 43 -9 38 -5 40 -4
52 31 6 20 16 36 20 36 5 0 16 -21 23 -47 13 -45 17 -48 56 -56 24 -5 44 -7
46 -5 2 2 -2 24 -9 48 -13 44 -13 44 18 65 37 25 47 76 21 105 -23 26 -189 68
-199 51z m131 -87 c3 -9 0 -20 -8 -25 -31 -19 -74 -3 -63 24 8 22 62 23 71 1z"/>
<path d="M2655 3094 c-22 -61 -34 -108 -29 -113 5 -5 43 -16 84 -25 71 -16 76
-16 88 1 20 28 10 47 -32 55 -22 5 -41 10 -43 12 -2 1 9 36 23 76 14 40 23 79
20 86 -3 8 -20 14 -40 14 l-34 0 -37 -106z"/>
<path d="M3031 3126 c-6 -7 -26 -57 -46 -111 -35 -99 -35 -114 2 -115 6 0 18
-3 27 -6 17 -7 18 -6 67 129 17 48 30 90 27 93 -15 14 -68 21 -77 10z"/>
<path d="M3247 3073 c-12 -21 -68 -205 -64 -209 10 -10 65 -21 74 -15 6 3 14
21 18 40 l7 33 51 -6 c28 -4 55 -8 61 -9 6 -1 12 10 14 24 3 25 -1 28 -48 39
-30 7 -49 17 -47 24 4 11 31 12 97 5 31 -4 35 -1 38 21 3 25 -1 26 -80 43 -92
19 -115 21 -121 10z"/>
<path d="M3498 2913 c-21 -64 -32 -110 -26 -114 20 -13 190 -50 204 -45 8 3
14 14 14 25 0 19 -21 29 -93 45 -20 5 -27 12 -25 24 4 17 7 18 86 6 43 -7 44
-7 40 22 -3 26 -8 30 -50 38 -32 5 -48 13 -48 23 0 15 4 15 101 -4 22 -4 28
-1 34 17 5 14 2 25 -6 31 -11 6 -169 39 -190 39 -3 0 -21 -48 -41 -107z"/>
<path d="M2536 2643 c-11 -11 -6 -23 9 -23 8 0 15 4 15 9 0 13 -16 22 -24 14z"/>
<path d="M2513 2578 c2 -7 10 -13 17 -13 7 0 15 6 18 13 2 7 -5 12 -18 12 -13
0 -20 -5 -17 -12z"/>
<path d="M3483 2424 c-8 -21 13 -42 28 -27 13 13 5 43 -11 43 -6 0 -13 -7 -17
-16z"/>
<path d="M893 1403 c9 -2 23 -2 30 0 6 3 -1 5 -18 5 -16 0 -22 -2 -12 -5z"/>
<path d="M968 1393 c7 -3 16 -2 19 1 4 3 -2 6 -13 5 -11 0 -14 -3 -6 -6z"/>
<path d="M1285 1345 c6 -2 125 -32 265 -65 140 -33 404 -95 585 -139 470 -113
1537 -352 1543 -346 16 15 -1379 352 -1938 468 -322 67 -486 97 -455 82z"/>
<path d="M3468 813 c7 -3 16 -2 19 1 4 3 -2 6 -13 5 -11 0 -14 -3 -6 -6z"/>
<path d="M3558 793 c7 -3 16 -2 19 1 4 3 -2 6 -13 5 -11 0 -14 -3 -6 -6z"/>
<path d="M3618 783 c7 -3 16 -2 19 1 4 3 -2 6 -13 5 -11 0 -14 -3 -6 -6z"/>
<path d="M3658 773 c6 -2 18 -2 25 0 6 3 1 5 -13 5 -14 0 -19 -2 -12 -5z"/>
<path d="M3900 720 c248 -56 228 -52 206 -39 -25 15 -153 49 -187 49 -14 0
-29 3 -33 7 -4 4 -22 8 -39 9 -18 0 -52 4 -77 7 -25 4 34 -11 130 -33z"/>
<path d="M4155 660 c11 -5 29 -8 40 -8 16 0 15 2 -5 8 -34 11 -60 11 -35 0z"/>
</g>
</svg>
