<?xml version="1.0" standalone="no"?>
<!DOCTYPE svg PUBLIC "-//W3C//DTD SVG 20010904//EN"
 "http://www.w3.org/TR/2001/REC-SVG-20010904/DTD/svg10.dtd">
<svg version="1.0" xmlns="http://www.w3.org/2000/svg"
 width="608.000000pt" height="608.000000pt" viewBox="0 0 608.000000 608.000000"
 preserveAspectRatio="xMidYMid meet">
<metadata>
Created by potrace 1.14, written by Peter Selinger 2001-2017
</metadata>
<g transform="translate(0.000000,608.000000) scale(0.100000,-0.100000)"
fill="#000000" stroke="none">
<path d="M2939 6076 c-2 -2 -40 -6 -84 -10 -44 -4 -93 -9 -110 -11 -38 -6 -92
-14 -125 -20 -60 -9 -189 -37 -240 -52 -30 -8 -62 -16 -70 -18 -32 -6 -186
-56 -204 -66 -10 -6 -26 -12 -36 -14 -41 -8 -387 -166 -400 -184 -3 -3 -18
-13 -35 -21 -110 -55 -305 -191 -460 -320 -141 -118 -353 -337 -430 -444 -11
-15 -30 -40 -43 -54 -22 -27 -127 -182 -174 -257 -67 -108 -142 -255 -197
-385 -18 -41 -36 -84 -41 -95 -28 -64 -106 -310 -116 -365 -3 -14 -7 -32 -10
-40 -3 -8 -12 -49 -20 -90 -8 -41 -16 -84 -18 -95 -28 -149 -39 -272 -40 -465
-1 -145 1 -158 23 -204 32 -63 94 -126 156 -156 66 -32 197 -34 263 -5 23 11
42 23 42 27 0 5 6 8 13 8 15 0 77 63 77 79 0 6 4 11 9 11 7 0 25 36 32 68 1 4
7 25 14 47 6 23 9 50 5 60 -4 11 -6 23 -4 27 3 4 7 46 9 95 6 110 11 166 19
220 4 23 9 55 11 70 8 49 55 255 61 264 3 5 8 22 10 37 3 14 16 54 30 88 13
33 24 64 24 68 0 8 6 23 64 149 20 44 36 83 36 88 0 5 5 9 10 9 6 0 10 6 10
13 0 31 232 387 252 387 4 0 8 4 8 9 0 15 57 79 190 211 188 189 410 347 640
457 145 69 176 83 189 83 6 0 19 4 29 10 21 12 197 68 232 74 14 3 26 5 28 7
2 2 6 3 52 12 122 25 186 35 265 43 39 4 105 8 147 8 43 1 78 5 78 9 0 5 4 6
9 3 5 -4 67 -8 138 -11 130 -5 178 -10 223 -20 14 -3 48 -8 75 -11 28 -4 53
-8 56 -10 4 -2 22 -6 42 -9 19 -3 79 -19 133 -34 207 -60 348 -17 434 134 46
82 54 178 20 267 -19 50 -78 137 -93 138 -5 0 -22 9 -38 20 -29 22 -139 63
-139 53 0 -3 -6 -1 -12 4 -7 6 -20 11 -28 11 -8 0 -24 3 -35 6 -60 16 -154 37
-185 42 -19 3 -41 7 -48 9 -7 3 -31 7 -55 10 -23 3 -58 8 -77 10 -19 3 -55 8
-80 11 -51 6 -506 15 -511 10z"/>
<path d="M5205 5159 c-22 -5 -49 -13 -60 -18 -11 -5 -65 -28 -120 -51 -55 -23
-122 -54 -150 -68 -27 -14 -52 -26 -55 -27 -13 -3 -259 -132 -382 -200 -35
-20 -81 -45 -103 -56 -22 -10 -60 -32 -85 -47 -25 -16 -70 -41 -100 -58 -30
-16 -57 -31 -60 -34 -3 -4 -54 -34 -115 -68 -60 -35 -119 -68 -129 -75 -97
-60 -126 -77 -131 -77 -3 0 -11 -5 -18 -10 -11 -9 -133 -84 -197 -121 -14 -8
-27 -16 -30 -19 -3 -3 -14 -10 -25 -17 -72 -43 -203 -125 -277 -175 -48 -32
-92 -58 -98 -58 -5 0 -10 -3 -10 -8 0 -4 -17 -16 -37 -27 -20 -11 -41 -25 -47
-30 -6 -6 -51 -38 -101 -70 -49 -33 -96 -66 -105 -73 -8 -7 -51 -41 -95 -75
-177 -136 -266 -255 -330 -442 -9 -27 -18 -63 -21 -80 -16 -115 -19 -144 -17
-175 1 -19 3 -53 3 -75 1 -22 11 -78 22 -123 58 -246 218 -445 446 -556 132
-65 209 -81 382 -80 87 0 135 6 195 23 72 20 231 91 245 109 3 4 24 20 47 35
50 35 124 113 200 216 32 42 61 78 65 79 4 2 8 8 8 14 0 8 44 76 73 113 18 22
126 189 223 345 57 91 108 170 114 177 5 7 10 14 10 17 0 2 34 59 75 126 41
67 75 124 75 127 0 3 14 25 30 50 17 24 30 46 30 47 0 2 39 70 86 152 48 82
97 166 109 189 12 22 40 72 62 110 22 39 61 111 88 160 26 50 62 115 78 145
35 65 171 333 172 340 1 3 13 31 28 63 61 130 77 168 97 235 36 118 24 140
-65 121z m-1965 -1942 c78 -37 127 -110 135 -197 4 -53 -13 -127 -36 -155 -60
-71 -113 -99 -189 -99 -85 0 -133 18 -181 71 -114 122 -70 322 84 385 52 21
138 18 187 -5z"/>
<path d="M5680 3226 c-48 -14 -123 -92 -142 -146 -37 -111 4 -222 107 -288 76
-49 216 -31 284 36 61 60 85 165 57 250 -18 53 -68 110 -121 138 -36 20 -136
25 -185 10z"/>
<path d="M680 1787 c-123 -39 -195 -202 -141 -319 43 -91 106 -136 207 -145
132 -13 250 103 247 240 -4 163 -158 273 -313 224z"/>
<path d="M5339 1791 c-14 -5 -36 -14 -50 -21 -32 -17 -100 -89 -94 -100 3 -5
1 -10 -5 -12 -13 -4 -21 -41 -22 -105 0 -40 6 -64 29 -105 90 -161 312 -168
408 -14 26 43 30 58 29 120 0 39 -3 78 -5 87 -11 37 -65 102 -105 125 -45 27
-139 39 -185 25z"/>
<path d="M1651 833 c-59 -12 -130 -74 -157 -138 -62 -145 33 -312 189 -331 22
-3 45 -7 49 -10 4 -3 8 -1 8 3 0 5 9 9 20 10 63 5 133 64 167 142 66 150 -35
315 -200 326 -29 2 -63 1 -76 -2z"/>
<path d="M4517 834 c-2 -3 -14 -6 -26 -9 -24 -4 -82 -42 -94 -62 -4 -6 -13
-18 -20 -25 -45 -46 -55 -175 -19 -245 61 -118 199 -164 315 -107 193 95 171
382 -33 441 -23 7 -117 12 -123 7z"/>
<path d="M3061 467 c-94 -35 -155 -124 -155 -227 0 -140 95 -235 234 -235 104
1 171 44 216 139 54 116 -7 272 -123 317 -43 16 -134 19 -172 6z"/>
</g>
</svg>
